HIERARCHY
ROOT Hips
{
	OFFSET -3.958830 18.904000 13.208200
	CHANNELS 6 Xposition Yposition Zposition Zrotation Yrotation Xrotation 
	JOINT LHipJoint
	{
		OFFSET 0.000000 0.000000 0.000000
		CHANNELS 3 Zrotation Yrotation Xrotation
		JOINT LeftUpLeg
		{
			OFFSET 1.800000 -1.400000 0.085000
			CHANNELS 3 Zrotation Yrotation Xrotation
			JOINT LeftLeg
			{
				OFFSET 2.215000 -6.000000 0.000000
				CHANNELS 3 Zrotation Yrotation Xrotation
				JOINT LeftFoot
				{
					OFFSET 2.500000 -6.900000 0.000000
					CHANNELS 3 Zrotation Yrotation Xrotation
					JOINT LeftToeBase
					{
						OFFSET 0.200000 -0.500000 1.950000
						CHANNELS 3 Zrotation Yrotation Xrotation
						End Site
						{
							OFFSET 0.000000 0.000000 0.000000
						}
					}
				}
			}
		}
	}
	JOINT RHipJoint
	{
		OFFSET 0.000000 0.000000 0.000000
		CHANNELS 3 Zrotation Yrotation Xrotation
		JOINT RightUpLeg
		{
			OFFSET -1.800000 -1.400000 0.085000
			CHANNELS 3 Zrotation Yrotation Xrotation
			JOINT RightLeg
			{
				OFFSET -2.215000 -6.000000 0.000000
				CHANNELS 3 Zrotation Yrotation Xrotation
				JOINT RightFoot
				{
					OFFSET -2.500000 -6.900000 0.000000
					CHANNELS 3 Zrotation Yrotation Xrotation
					JOINT RightToeBase
					{
						OFFSET -0.200000 -0.500000 1.950000
						CHANNELS 3 Zrotation Yrotation Xrotation
						End Site
						{
							OFFSET 0.000000 0.000000 0.000000
						}
					}
				}
			}
		}
	}
	JOINT LowerBack
	{
		OFFSET 0.000000 0.000000 0.000000
		CHANNELS 3 Zrotation Yrotation Xrotation
		JOINT Spine
		{
			OFFSET -0.087000 1.940000 -0.288900
			CHANNELS 3 Zrotation Yrotation Xrotation
			JOINT Spine1
			{
				OFFSET 0.000000 1.950000 0.060000
				CHANNELS 3 Zrotation Yrotation Xrotation
				JOINT Neck
				{
					OFFSET 0.000000 0.000000 0.000000
					CHANNELS 3 Zrotation Yrotation Xrotation
					JOINT Neck1
					{
						OFFSET 0.000000 1.600000 0.340000
						CHANNELS 3 Zrotation Yrotation Xrotation
						JOINT Head
						{
							OFFSET 0.000000 1.667000 -0.240000
							CHANNELS 3 Zrotation Yrotation Xrotation
							End Site
							{
								OFFSET 0.000000 0.000000 0.000000
							}
						}
					}
				}
				JOINT LeftShoulder
				{
					OFFSET 0.000000 0.000000 0.000000
					CHANNELS 3 Zrotation Yrotation Xrotation
					JOINT LeftArm
					{
						OFFSET 2.700000 1.550000 -0.730000
						CHANNELS 3 Zrotation Yrotation Xrotation
						JOINT LeftForeArm
						{
							OFFSET 5.450000 0.000000 0.000000
							CHANNELS 3 Zrotation Yrotation Xrotation
							JOINT LeftHand
							{
								OFFSET 3.450000 0.000000 0.000000
								CHANNELS 3 Zrotation Yrotation Xrotation
								JOINT LeftHandIndex1
								{
									OFFSET 0.750000 0.000000 0.000000
									CHANNELS 3 Zrotation Yrotation Xrotation
									End Site
									{
										OFFSET 0.000000 0.000000 0.000000
									}
								}
							}
						}
					}
				}
				JOINT RightShoulder
				{
					OFFSET 0.000000 0.000000 0.000000
					CHANNELS 3 Zrotation Yrotation Xrotation
					JOINT RightArm
					{
						OFFSET -2.700000 1.550000 -0.730000
						CHANNELS 3 Zrotation Yrotation Xrotation
						JOINT RightForeArm
						{
							OFFSET -5.450000 0.000000 0.000000
							CHANNELS 3 Zrotation Yrotation Xrotation
							JOINT RightHand
							{
								OFFSET -3.450000 0.000000 0.000000
								CHANNELS 3 Zrotation Yrotation Xrotation
								JOINT RightHandIndex1
								{
									OFFSET -0.750000 0.000000 0.000000
									CHANNELS 3 Zrotation Yrotation Xrotation
									End Site
									{
										OFFSET 0.000000 0.000000 0.000000
									}
								}
							}
						}
					}
				}
			}
		}
	}
}
MOTION
Frames: 9
Frame Time: 0.016667
0.878660 16.370410 -3.560950 10.860355 -61.003564 2.667927 -15.945009 10.881711 6.577419 6.889964 -11.016526 -56.740718 0.085949 24.721129 88.766027 2.132162 17.529523 -0.866096 0.620890 0.127940 0.734480 17.962668 -9.029595 2.065681 -8.875036 4.254361 -23.617002 9.178669 -5.179598 14.758367 -0.101535 -2.888988 3.522154 0.232980 0.177390 0.394270 -3.062376 -2.070941 -8.922235 3.707272 1.810645 22.903387 -1.961222 3.705038 1.719833 2.805200 -2.669112 -7.837788 -4.464780 13.013450 23.489972 -16.629420 18.296820 -15.441770 -31.233349 -7.101735 3.572643 -26.851327 7.836444 -0.703603 -6.793308 6.986755 -2.059514 -4.122170 2.736751 0.626230 0.372100 0.004170 0.228000 25.927843 11.736068 3.237327 38.615103 9.572828 -7.851835 56.866020 72.638100 32.411926 1.919183 -1.827488 -0.314910 0.130950 -0.180750 -0.518210 
0.956760 16.407810 -3.540090 10.685469 -60.505230 2.147250 -15.871511 10.918515 6.533997 6.531955 -10.141544 -57.250301 -0.474321 21.847242 81.547918 1.714788 16.095469 -0.548127 0.567340 0.063410 0.696940 18.003376 -9.261229 2.081608 -8.466508 4.503187 -22.168293 9.935532 -6.070261 18.264413 -0.151499 -3.351718 3.381231 0.190210 0.199840 0.384140 -3.197244 -1.747795 -8.874987 5.348797 2.707058 24.095370 -2.460175 5.078575 1.946517 3.077231 -2.082779 -8.479904 -3.389331 11.925840 23.994369 -16.788720 18.032700 -14.962990 -30.859408 -8.130985 4.226444 -24.165194 8.556334 -0.441259 -7.415379 7.651403 -2.238158 -4.118040 2.713432 0.630670 0.378130 -0.013160 0.221250 24.845066 12.881713 3.754326 36.895864 10.729066 -6.783440 60.322842 74.038592 35.645046 1.981917 -1.739906 -0.332420 0.138540 -0.156530 -0.515540 
1.015440 16.412920 -3.530290 11.258840 -59.414728 1.198125 -15.825335 11.009081 6.446586 5.401106 -9.576216 -57.842727 -0.076074 18.231384 73.730769 1.229280 14.372806 -0.141310 0.510840 -0.020820 0.667010 18.026701 -9.456940 2.066858 -7.760131 4.621399 -20.255866 10.033089 -6.809481 21.587410 -0.203750 -3.845249 3.215101 0.135920 0.212090 0.403940 -3.121924 -1.582999 -8.785974 5.421174 4.300423 24.330438 -1.703718 6.571902 2.373309 3.279557 -0.897979 -9.001658 -1.334767 10.268730 24.382370 -17.096510 17.738020 -13.865640 -29.973423 -8.908681 4.744532 -21.289637 8.796032 -0.029681 -8.326327 10.361092 -2.644157 -4.166772 2.724523 0.621250 0.397350 -0.040660 0.194620 23.543928 13.420190 4.257181 34.937569 11.014736 -5.968611 63.546605 75.434084 38.712318 2.047949 -1.658308 -0.332470 0.099830 -0.119280 -0.524220 
1.070720 16.398410 -3.520630 11.881365 -58.659411 -0.267080 -15.742205 11.233806 6.181027 3.309710 -8.860117 -56.882727 1.799578 14.103321 65.717033 0.718358 12.377984 0.387136 0.517150 -0.024920 0.684190 18.049542 -9.719249 2.113688 -6.932133 4.519550 -17.610159 10.292856 -7.310197 23.557302 -0.281000 -4.264839 3.070424 0.132520 0.183980 0.404440 -3.066904 -1.422573 -8.629567 5.572000 5.868435 24.603018 -0.980771 8.067064 3.016689 3.364573 0.030148 -9.224967 0.249035 8.334990 24.996391 -17.551580 16.877420 -13.356130 -29.393206 -9.347040 5.056962 -17.515982 8.734813 0.472417 -7.488800 11.095500 -2.606771 -4.147821 2.745756 0.619340 0.386220 -0.038890 0.188880 22.691732 13.807196 4.460249 31.768439 11.888110 -5.113564 64.217128 76.858409 40.489955 2.074665 -1.640481 -0.325800 0.069950 -0.135580 -0.530920 
1.133960 16.367100 -3.491050 10.924559 -57.893404 -0.828048 -15.609975 11.459027 5.824648 0.418245 -8.023046 -55.386737 5.519746 9.444143 57.460678 0.112598 10.260992 1.001514 0.548580 -0.014380 0.755380 18.098667 -10.098145 2.242567 -5.078231 4.113158 -14.350753 9.904741 -7.355241 24.010727 -0.340876 -4.511548 2.984372 0.184700 0.172700 0.409210 -3.259694 -0.990565 -8.405063 7.843730 6.987676 25.220112 -1.293189 9.689094 3.775288 3.575185 1.473616 -8.657790 2.791769 6.115289 24.766897 -18.867780 15.752440 -14.053660 -30.430716 -9.324554 4.717839 -11.257911 9.350740 1.122982 -8.855067 8.850715 -2.850804 -4.094995 2.728381 0.642350 0.412300 -0.047710 0.163900 22.855421 13.015717 3.913820 27.432358 12.928803 -4.176078 64.140979 77.840447 41.813269 2.016345 -1.632324 -0.368360 0.090680 -0.133090 -0.582580 
1.183010 16.308710 -3.449620 9.512424 -57.746485 -0.489447 -15.469139 11.678645 5.429576 -1.294033 -6.599868 -53.502839 7.595020 6.495378 47.622315 -0.362441 8.089262 1.699050 0.588250 0.026630 0.801430 18.150182 -10.489774 2.420939 -3.050638 3.417967 -11.974160 8.737050 -6.865173 22.873745 -0.353753 -4.462513 3.003779 0.225490 0.143710 0.415350 -3.521660 -0.519505 -8.179594 10.547178 7.897504 24.813227 -1.257165 10.977775 4.606012 3.682579 2.084024 -8.225132 3.910286 4.324558 24.972134 -19.893840 14.673640 -14.080040 -30.373964 -9.183804 4.435346 -7.162082 9.613190 1.531074 -9.244020 7.258315 -2.792154 -4.034739 2.767550 0.634520 0.418410 -0.041970 0.157710 22.192028 12.629445 3.526097 24.072544 13.733199 -3.812761 60.206347 77.589945 39.762113 1.898464 -1.794188 -0.364730 0.081000 -0.154290 -0.598220 
1.221370 16.219150 -3.419870 9.196674 -57.515546 -0.256195 -15.369264 11.690928 5.186698 -2.857716 -5.762890 -52.710561 7.217876 5.005897 37.149770 -0.779903 6.024491 2.419617 0.653110 0.095450 0.840970 18.207656 -10.804198 2.546525 -0.841758 2.172830 -9.339659 6.857510 -6.176534 20.674467 -0.360585 -4.329133 3.054651 0.297570 0.141860 0.414400 -3.790675 -0.025311 -7.979603 12.137717 8.975504 22.966960 -0.617824 11.796202 5.829871 3.423479 1.851264 -7.423701 3.617839 3.412962 25.266859 -19.537670 13.159750 -14.226210 -29.366648 -8.490219 3.860025 -3.999007 8.217119 2.038771 -7.428741 6.744604 -2.519139 -4.052465 2.765202 0.631870 0.425340 -0.047360 0.167130 21.437086 12.153907 2.824358 21.531689 15.593465 -2.877058 55.508209 76.534748 36.879075 1.772821 -1.924297 -0.372100 0.109340 -0.168650 -0.606710 
1.251730 16.119890 -3.398480 8.502320 -57.152904 0.585699 -15.261948 11.653593 4.942975 -3.108709 -4.824827 -51.341137 4.982039 4.321685 26.557479 -1.077880 4.263127 3.084128 0.681250 0.127280 0.834520 18.282045 -11.074018 2.674280 0.856771 1.081810 -7.702409 4.972805 -5.564139 18.448929 -0.352192 -4.214534 3.099990 0.343590 0.178270 0.421710 -4.143767 0.451981 -7.816968 14.025544 9.595500 20.935593 -0.172140 12.080276 6.688082 3.022918 1.254834 -6.656170 2.700859 3.393563 25.650663 -18.683030 12.289680 -13.470520 -28.322810 -7.821049 3.303755 -1.153503 7.410755 2.294424 -5.965453 4.902458 -2.195463 -4.068128 2.810926 0.610300 0.451970 -0.072930 0.183630 20.981537 11.710775 2.220106 19.772906 16.999493 -2.040961 51.030917 74.917809 33.727170 1.678794 -2.016807 -0.380270 0.133890 -0.162530 -0.597070 
1.280780 16.025050 -3.363910 7.617637 -55.313076 1.699036 -15.142411 11.434908 4.858226 -3.482232 -4.780315 -50.165141 2.549131 3.645185 17.652911 -1.248072 3.059715 3.566698 0.715760 0.177930 0.814910 18.400168 -11.253249 2.745393 1.556171 0.508311 -6.875316 4.635620 -5.451978 17.189899 -0.370273 -4.226461 3.112888 0.386950 0.205670 0.404350 -4.644925 0.987513 -7.743378 16.882420 9.086340 18.828528 -0.603988 11.334910 7.267547 2.546081 -0.115795 -6.070431 0.433437 3.783642 26.512800 -17.328310 11.200880 -12.966970 -26.386154 -6.889738 2.877492 -0.525761 5.868455 2.250205 -3.478377 3.488132 -1.815588 -4.103779 2.812936 0.595430 0.451780 -0.088640 0.213990 19.832859 11.286340 1.550438 19.771162 18.659711 -1.387963 43.963321 71.702496 28.095877 1.591054 -2.066751 -0.381770 0.173160 -0.170030 -0.572740 
